# xmcd
#
# Track frame offsets: 
#        150
#        15338
#        39908
#        62521
#        77025
#
# Disc length: 1211 seconds
#
# Revision: 2
# Processed by: cddbd v1.5.2PL0 Copyright (c) Steve Scherf et al.
# Submitted via: ExactAudioCopyFreeDBPlugin 1.0
#
DISCID=2a04b905
DTITLE=Peter Green Splinter Group - The Best of Peter Green Splinter G
DTITLE=roup (Bonus CD)
DYEAR=2002
DGENRE=Blues
TTITLE0=Albatross (Soho Live)
TTITLE1=Green Manalishi (Soho Live)
TTITLE2=Rattlesnake Shake (Soho Live)
TTITLE3=Supernatural (Soho Live)
TTITLE4=Man Of The World (Destiny Road)
EXTD=
EXTT0=
EXTT1=
EXTT2=
EXTT3=
EXTT4=
PLAYORDER=
